# File created by Blade
# Date/Time:  Wed Jan 21 19:09:01 2015
#---------------------------------------------------------
:version 1.10
:name HOM
:units
  mass 1.0
  length 1.000000
  angle deg
:documentation
     Acclaim Skeleton File
:root
   axis xyz
   order TX TY TZ RX RY RZ
   position 0.000000 0.000000 0.000000
   orientation 0 0 0
:bonedata
   begin
      id 1
      name RightUpLeg_dum
      direction -1.000000 0.000000 0.000000
      length 3.693983
      axis 0.0 0.0 0.0 xyz
   end
   begin
      id 2
      name LeftUpLeg_dum
      direction 1.000000 0.000000 0.000000
      length 3.693983
      axis 0.0 0.0 0.0 xyz
   end
   begin
      id 3
      name Spine_dum
      direction 0.000000 1.000000 0.000000
      length 2.392956
      axis 0.0 0.0 0.0 xyz
   end
   begin
      id 4
      name RightUpLeg
      direction 0.000000 -1.000000 0.000000
      length 15.795667
      axis 0.0 0.0 0.0 xyz
      dof rx ry rz
   end
   begin
      id 5
      name RightLeg
      direction 0.000000 -1.000000 0.000000
      length 14.766989
      axis 0.0 0.0 0.0 xyz
      dof rx ry rz
   end
   begin
      id 6
      name RightFoot
      direction 0.000000 -0.258819 0.965926
      length 4.962790
      axis 15.0 0.0 0.0 xyz
      dof rx ry rz
   end
   begin
      id 7
      name RightToeBase
      direction 0.000000 0.000000 1.000000
      length 2.952750
      axis 0.0 0.0 0.0 xyz
      dof rx ry rz
   end
   begin
      id 8
      name LeftUpLeg
      direction 0.000000 -1.000000 0.000000
      length 15.795667
      axis 0.0 0.0 0.0 xyz
      dof rx ry rz
   end
   begin
      id 9
      name LeftLeg
      direction 0.000000 -1.000000 0.000000
      length 14.766989
      axis 0.0 0.0 0.0 xyz
      dof rx ry rz
   end
   begin
      id 10
      name LeftFoot
      direction 0.000000 -0.258819 0.965926
      length 4.962790
      axis 15.0 0.0 0.0 xyz
      dof rx ry rz
   end
   begin
      id 11
      name LeftToeBase
      direction 0.000000 0.000000 1.000000
      length 2.952750
      axis 0.0 0.0 0.0 xyz
      dof rx ry rz
   end
   begin
      id 12
      name Spine
      direction 0.000000 1.000000 0.000000
      length 0.000000
      axis 0.0 0.0 0.0 xyz
      dof rx ry rz
   end
   begin
      id 13
      name Spine_dum1
      direction 0.000000 1.000000 0.000000
      length 13.207411
      axis 0.0 0.0 0.0 xyz
   end
   begin
      id 14
      name Spine_dum2
      direction 0.000000 1.000000 0.000000
      length 13.207411
      axis 0.0 0.0 0.0 xyz
   end
   begin
      id 15
      name Spine_dum3
      direction 0.000000 1.000000 0.000000
      length 19.250100
      axis 0.0 0.0 0.0 xyz
   end
   begin
      id 16
      name RightShoulder
      direction -1.000000 0.000000 0.000000
      length 8.140465
      axis 0.0 0.0 90.0 xyz
      dof rx ry rz
   end
   begin
      id 17
      name RightArm
      direction -1.000000 0.000000 0.000000
      length 10.649840
      axis 0.0 0.0 90.0 xyz
      dof rx ry rz
   end
   begin
      id 18
      name RightForeArm
      direction -1.000000 0.000000 0.000000
      length 8.304624
      axis 0.0 0.0 90.0 xyz
      dof ry rz rx
   end
   begin
      id 19
      name RightHand
      direction -1.000000 0.000000 0.000000
      length 0.000000
      axis 0.0 0.0 90.0 xyz
      dof rx ry rz
   end
   begin
      id 20
      name RightHand_dum1
      direction -1.000000 0.000000 0.000000
      length 3.937000
      axis 0.0 0.0 90.0 xyz
   end
   begin
      id 21
      name RightHand_dum2
      direction 0.000000 0.000000 0.000000
      length 0.000000
      axis 0.0 0.0 90.0 xyz
   end
   begin
      id 22
      name RightHandThumb1
      direction 0.000000 0.000000 1.000000
      length 3.937000
      axis 0.0 0.0 90.0 xyz
      dof rx rz ry
   end
   begin
      id 23
      name LeftShoulder
      direction 1.000000 0.000000 0.000000
      length 8.140465
      axis 0.0 0.0 -90.0 xyz
      dof rx ry rz
   end
   begin
      id 24
      name LeftArm
      direction 1.000000 0.000000 0.000000
      length 10.649840
      axis 0.0 0.0 -90.0 xyz
      dof rx ry rz
   end
   begin
      id 25
      name LeftForeArm
      direction 1.000000 0.000000 0.000000
      length 8.304624
      axis 0.0 0.0 -90.0 xyz
      dof ry rz rx
   end
   begin
      id 26
      name LeftHand
      direction 1.000000 0.000000 0.000000
      length 0.000000
      axis 0.0 0.0 -90.0 xyz
      dof rx ry rz
   end
   begin
      id 27
      name LeftHand_dum1
      direction 1.000000 0.000000 0.000000
      length 3.937000
      axis 0.0 0.0 -90.0 xyz
   end
   begin
      id 28
      name LeftHand_dum2
      direction 0.000000 0.000000 0.000000
      length 0.000000
      axis 0.0 0.0 -90.0 xyz
   end
   begin
      id 29
      name LeftHandThumb1
      direction 0.000000 0.000000 1.000000
      length 3.937000
      axis 0.0 0.0 -90.0 xyz
      dof rx rz ry
   end
   begin
      id 30
      name Head
      direction 0.000000 1.000000 0.000000
      length 4.527550
      axis 0.0 0.0 0.0 xyz
      dof rx ry rz
   end
:hierarchy
   begin
      root RightUpLeg_dum LeftUpLeg_dum Spine_dum
      RightUpLeg_dum RightUpLeg
      LeftUpLeg_dum LeftUpLeg
      Spine_dum Spine
      RightUpLeg RightLeg
      RightLeg RightFoot
      RightFoot RightToeBase
      LeftUpLeg LeftLeg
      LeftLeg LeftFoot
      LeftFoot LeftToeBase
      Spine Spine_dum1 Spine_dum2 Spine_dum3
      Spine_dum1 RightShoulder
      Spine_dum2 LeftShoulder
      Spine_dum3 Head
      RightShoulder RightArm
      RightArm RightForeArm
      RightForeArm RightHand
      RightHand RightHand_dum1 RightHand_dum2
      RightHand_dum2 RightHandThumb1
      LeftShoulder LeftArm
      LeftArm LeftForeArm
      LeftForeArm LeftHand
      LeftHand LeftHand_dum1 LeftHand_dum2
      LeftHand_dum2 LeftHandThumb1
   end

# File created by Blade
# Date/Time:  Wed Jan 21 19:08:52 2015
# Frame Rate: 120.000 fps
#------------------------------------------------------
:FULLY-SPECIFIED
:DEGREES
1
root -7.004219 32.591629 -7.321313 38.544607 7.513642 1.553065
RightUpLeg -31.365831 -14.374573 7.710380
RightLeg -4.441784 -0.000000 0.000000
RightFoot -9.384103 4.712764 22.143416
RightToeBase 23.303098 -0.000000 -0.000000
LeftUpLeg -33.536081 3.807845 -2.317646
LeftLeg 1.014478 -0.000000 -0.000000
LeftFoot -9.317058 -8.452626 -8.537823
LeftToeBase 11.323780 -0.000000 -0.000000
Spine -42.533795 -3.238456 1.249648
RightShoulder -17.846591 16.233415 -45.831472
RightArm 3.016572 -18.618959 40.118484
RightForeArm 4.824246 0.000000 -6.694250
RightHand 5.758693 -0.000000 8.368535
RightHandThumb1 -24.326973 -0.000000 -32.862282
LeftShoulder -11.520998 2.230489 39.641459
LeftArm 21.339367 -14.151837 -39.762308
LeftForeArm 11.337335 -0.000000 -4.785864
LeftHand -23.463379 -0.000000 -2.859863
LeftHandThumb1 -26.253704 0.000000 33.147579
Head 4.911481 -0.332595 5.345481
2
root -6.998979 32.592076 -7.325294 38.556364 7.505384 1.553628
RightUpLeg -31.382755 -14.374159 7.701711
RightLeg -4.447938 -0.000000 0.000000
RightFoot -9.369976 4.718638 22.163881
RightToeBase 23.303461 -0.000000 -0.000000
LeftUpLeg -33.549276 3.788354 -2.318089
LeftLeg 1.010216 -0.000000 -0.000000
LeftFoot -9.312580 -8.441838 -8.546747
LeftToeBase 11.329209 -0.000000 -0.000000
Spine -42.525742 -3.237277 1.247124
RightShoulder -17.834222 16.217338 -45.819629
RightArm 3.022619 -18.777455 40.132353
RightForeArm 4.961971 0.000000 -6.678657
RightHand 5.755560 -0.000000 8.364550
RightHandThumb1 -24.326973 -0.000000 -32.862282
LeftShoulder -11.532386 2.258321 39.642407
LeftArm 21.329762 -14.136268 -39.777838
LeftForeArm 11.334084 -0.000000 -4.785074
LeftHand -23.456894 0.000000 -2.879629
LeftHandThumb1 -26.253704 0.000000 33.147579
Head 4.896158 -0.323422 5.341384
3
root -6.994609 32.592555 -7.329129 38.563802 7.488659 1.552482
RightUpLeg -31.399081 -14.366510 7.690124
RightLeg -4.444964 -0.000000 0.000000
RightFoot -9.363251 4.710526 22.132612
RightToeBase 23.295213 -0.000000 -0.000000
LeftUpLeg -33.558563 3.773545 -2.321752
LeftLeg 1.009951 -0.000000 -0.000000
LeftFoot -9.312666 -8.420233 -8.549620
LeftToeBase 11.333299 -0.000000 -0.000000
Spine -42.515678 -3.227035 1.240155
RightShoulder -17.817177 16.212470 -45.817615
RightArm 3.025063 -18.785110 40.152527
RightForeArm 4.961846 -0.000000 -6.692358
RightHand 5.743770 -0.000000 8.397245
RightHandThumb1 -24.326973 -0.000000 -32.862282
LeftShoulder -11.535074 2.263662 39.632734
LeftArm 21.305511 -14.104719 -39.767660
LeftForeArm 11.313042 -0.000000 -4.797120
LeftHand -23.460717 -0.000000 -2.926635
LeftHandThumb1 -26.253704 0.000000 33.147579
Head 4.892544 -0.314413 5.327500
4
root -6.990800 32.592642 -7.332385 38.571211 7.472808 1.548750
RightUpLeg -31.410793 -14.367164 7.688482
RightLeg -4.452980 -0.000000 0.000000
RightFoot -9.334485 4.732040 22.142856
RightToeBase 23.266639 -0.000000 -0.000000
LeftUpLeg -33.571689 3.791653 -2.341486
LeftLeg 1.008915 -0.000000 -0.000000
LeftFoot -9.303944 -8.408000 -8.526567
LeftToeBase 11.280932 -0.000000 -0.000000
Spine -42.503617 -3.208019 1.224023
RightShoulder -17.812583 16.194748 -45.803005
RightArm 3.028038 -18.764592 40.158084
RightForeArm 4.933012 0.000000 -6.693192
RightHand 5.766774 -0.000000 8.430544
RightHandThumb1 -24.326973 -0.000000 -32.862282
LeftShoulder -11.536090 2.287849 39.633011
LeftArm 21.306251 -14.086898 -39.783025
LeftForeArm 11.292693 -0.000000 -4.806247
LeftHand -23.488581 -0.000000 -3.055462
LeftHandThumb1 -26.253704 0.000000 33.147579
Head 4.875261 -0.333198 5.316811
5
root -6.986015 32.593176 -7.335709 38.576225 7.465024 1.549606
RightUpLeg -31.416311 -14.359135 7.675458
RightLeg -4.464172 -0.000000 0.000000
RightFoot -9.326827 4.718296 22.207766
RightToeBase 23.291981 -0.000000 -0.000000
LeftUpLeg -33.579769 3.780803 -2.349361
LeftLeg 1.007727 -0.000000 -0.000000
LeftFoot -9.281242 -8.403708 -8.580219
LeftToeBase 11.266399 -0.000000 -0.000000
Spine -42.492333 -3.193570 1.217691
RightShoulder -17.807967 16.158221 -45.799571
RightArm 3.051649 -18.758031 40.174632
RightForeArm 4.935706 -0.000000 -6.700700
RightHand 5.733928 0.000000 8.436974
RightHandThumb1 -24.326973 -0.000000 -32.862282
LeftShoulder -11.531877 2.280994 39.608257
LeftArm 21.305454 -14.171318 -39.808548
LeftForeArm 11.402408 -0.000000 -4.842621
LeftHand -23.471456 0.000000 -3.061723
LeftHandThumb1 -26.253704 0.000000 33.147579
Head 4.866491 -0.325553 5.291828
6
root -6.980567 32.593396 -7.338919 38.585971 7.450384 1.556116
RightUpLeg -31.426754 -14.369369 7.667863
RightLeg -4.478527 -0.000000 0.000000
RightFoot -9.296969 4.710273 22.140137
RightToeBase 23.214385 -0.000000 -0.000000
LeftUpLeg -33.588303 3.762849 -2.362548
LeftLeg 1.005573 -0.000000 -0.000000
LeftFoot -9.307670 -8.371283 -8.522760
LeftToeBase 11.302164 -0.000000 -0.000000
Spine -42.485980 -3.184526 1.203436
RightShoulder -17.786873 16.139472 -45.789435
RightArm 3.053493 -18.750990 40.193781
RightForeArm 4.937515 -0.000000 -6.720854
RightHand 5.754174 -0.000000 8.447133
RightHandThumb1 -24.326973 -0.000000 -32.862282
LeftShoulder -11.531973 2.306637 39.603466
LeftArm 21.297167 -14.181354 -39.835734
LeftForeArm 11.373026 -0.000000 -4.841945
LeftHand -23.407459 -0.000000 -2.942710
LeftHandThumb1 -26.253704 0.000000 33.147579
Head 4.865406 -0.325906 5.282048
7
root -6.976610 32.593534 -7.341002 38.591347 7.440082 1.546050
RightUpLeg -31.449275 -14.407728 7.698983
RightLeg -4.474842 -0.000000 0.000000
RightFoot -9.284466 4.758769 22.170872
RightToeBase 23.296133 -0.000000 -0.000000
LeftUpLeg -33.603351 3.791915 -2.381793
LeftLeg 1.014042 -0.000000 -0.000000
LeftFoot -9.311688 -8.378855 -8.476076
LeftToeBase 11.305390 -0.000000 -0.000000
Spine -42.479532 -3.162092 1.195741
RightShoulder -17.780145 16.168650 -45.791512
RightArm 3.034917 -18.832773 40.206144
RightForeArm 5.023853 -0.000000 -6.761796
RightHand 5.762700 -0.000000 8.570615
RightHandThumb1 -24.326973 -0.000000 -32.862282
LeftShoulder -11.523660 2.318084 39.626104
LeftArm 21.225271 -13.862959 -39.775748
LeftForeArm 11.061287 -0.000000 -4.775126
LeftHand -23.437735 -0.000000 -3.013230
LeftHandThumb1 -26.253704 0.000000 33.147579
Head 4.864767 -0.338513 5.272362
